<svg xmlns="http://www.w3.org/2000/svg" version="1.1" xmlns:xlink="http://www.w3.org/1999/xlink" xmlns:svgjs="http://svgjs.dev/svgjs" width="1440" height="560" preserveAspectRatio="none" viewBox="0 0 1440 560">
    <g mask="url(&quot;#SvgjsMask1001&quot;)" fill="none">
        <path d="M611.22 111.53a52.43 52.43 0 1 0 103.72 15.44z" stroke="#e73635"></path>
        <path d="M-19.28 295.93 a44.96 44.96 0 1 0 89.92 0 a44.96 44.96 0 1 0 -89.92 0z" stroke="#037b0b"></path>
        <path d="M1031.62 544.71L1064.69 544.71L1064.69 577.78L1031.62 577.78z" stroke="rgba(34, 46, 170, 1)"></path>
        <path d="M1365.37 139.78 a35.08 35.08 0 1 0 70.16 0 a35.08 35.08 0 1 0 -70.16 0z" fill="#037b0b"></path>
        <path d="M696.16 404.35 a36.39 36.39 0 1 0 72.78 0 a36.39 36.39 0 1 0 -72.78 0z" fill="#037b0b"></path>
        <path d="M864.04 259.44L913.26 259.44L913.26 291.88L864.04 291.88z" fill="rgba(34, 46, 170, 1)"></path>
        <path d="M1396.9 83.81a10.01 10.01 0 1 0 1.47-19.96z" stroke="#037b0b"></path>
        <path d="M474.1 92.08a18.08 18.08 0 1 0-13.13 33.69z" fill="rgba(34, 46, 170, 1)"></path>
        <path d="M575.14 134.01a20.93 20.93 0 1 0 41.36-6.48z" fill="#e73635"></path>
        <path d="M253.61 420.77L303.46 420.77L303.46 470.62L253.61 470.62z" fill="#e73635"></path>
        <path d="M344.12 357.32 a43.02 43.02 0 1 0 86.04 0 a43.02 43.02 0 1 0 -86.04 0z" fill="#e73635"></path>
        <path d="M1327.47 284.91 a10.7 10.7 0 1 0 21.4 0 a10.7 10.7 0 1 0 -21.4 0z" fill="rgba(34, 46, 170, 1)"></path>
        <path d="M1336.81 306.2L1391.35 306.2L1391.35 336.57L1336.81 336.57z" stroke="rgba(253, 219, 25, 1)"></path>
        <path d="M589.19 554.59 a14.55 14.55 0 1 0 29.1 0 a14.55 14.55 0 1 0 -29.1 0z" fill="rgba(253, 219, 25, 1)"></path>
        <path d="M1091.1 311.89L1091.75 311.89L1091.75 312.54L1091.1 312.54z" fill="#e73635"></path>
        <path d="M1254.34 43.99L1302.73 43.99L1302.73 62.56L1254.34 62.56z" stroke="rgba(253, 219, 25, 1)"></path>
        <path d="M653.46 244.94a43.61 43.61 0 1 0-82.7-27.72z" stroke="#037b0b"></path>
        <path d="M1414.7 280.31a29.12 29.12 0 1 0-9.63 57.44z" fill="rgba(253, 219, 25, 1)"></path>
        <path d="M1171.78 151.64L1219.79 151.64L1219.79 181.18L1171.78 181.18z" fill="rgba(253, 219, 25, 1)"></path>
        <path d="M961.91 477.63 a21.66 21.66 0 1 0 43.32 0 a21.66 21.66 0 1 0 -43.32 0z" fill="#037b0b"></path>
        <path d="M929.77 270.07L935.94 270.07L935.94 301.06L929.77 301.06z" fill="rgba(253, 219, 25, 1)"></path>
        <path d="M76.27 474.4L109.59 474.4L109.59 507.72L76.27 507.72z" stroke="#e73635"></path>
        <path d="M872.03 426.67a34.55 34.55 0 1 0 4.55-68.95z" fill="#e73635"></path>
        <path d="M31.63 54.64L76.42 54.64L76.42 99.43L31.63 99.43z" stroke="rgba(34, 46, 170, 1)"></path>
        <path d="M1359.54 75.17L1392.22 75.17L1392.22 84.13L1359.54 84.13z" stroke="rgba(34, 46, 170, 1)"></path>
        <path d="M293.12 218.64 a53.78 53.78 0 1 0 107.56 0 a53.78 53.78 0 1 0 -107.56 0z" fill="rgba(253, 219, 25, 1)"></path>
        <path d="M1147.38 495.08L1161.68 495.08L1161.68 509.38L1147.38 509.38z" fill="rgba(253, 219, 25, 1)"></path>
        <path d="M333.03 57.61L361.62 57.61L361.62 63.8L333.03 63.8z" stroke="#e73635"></path>
        <path d="M1217.17 365.21 a7.36 7.36 0 1 0 14.72 0 a7.36 7.36 0 1 0 -14.72 0z" fill="rgba(253, 219, 25, 1)"></path>
        <path d="M1282.77 442.64a12.84 12.84 0 1 0 10.24-23.55z" fill="#037b0b"></path>
        <path d="M750.06 468.77L771.13 468.77L771.13 489.84L750.06 489.84z" stroke="#037b0b"></path>
        <path d="M1410.93 17.56L1432.31 17.56L1432.31 38.94L1410.93 38.94z" stroke="rgba(34, 46, 170, 1)"></path>
        <path d="M1389.9 185.47 a41.08 41.08 0 1 0 82.16 0 a41.08 41.08 0 1 0 -82.16 0z" stroke="#037b0b"></path>
    </g>
    <defs>
        <mask id="SvgjsMask1001">
            <rect width="1440" height="560" fill="#ffffff"></rect>
        </mask>
    </defs>
</svg>